<?xml version="1.0" standalone="no"?>
<!DOCTYPE svg PUBLIC "-//W3C//DTD SVG 20010904//EN"
 "http://www.w3.org/TR/2001/REC-SVG-20010904/DTD/svg10.dtd">
<svg version="1.0" xmlns="http://www.w3.org/2000/svg"
 width="260.000000pt" height="260.000000pt" viewBox="0 0 260.000000 260.000000"
 preserveAspectRatio="xMidYMid meet">
<metadata>
Created by potrace 1.11, written by Peter Selinger 2001-2013
</metadata>
<g transform="translate(0.000000,260.000000) scale(0.100000,-0.100000)"
fill="#000000" stroke="none">
<path d="M915 2139 c-75 -16 -81 -17 -131 -32 -225 -67 -423 -232 -519 -432
-58 -120 -77 -210 -78 -355 0 -69 2 -141 5 -160 14 -88 44 -192 80 -280 22
-52 41 -109 42 -125 1 -17 5 -36 10 -43 4 -7 5 -12 2 -12 -3 0 4 -21 15 -47
19 -43 23 -59 28 -100 2 -25 51 -46 101 -44 51 1 159 32 193 56 17 12 26 9 77
-24 95 -62 185 -86 315 -86 134 1 202 23 267 89 40 39 47 42 91 40 55 -2 173
20 193 37 12 9 24 2 62 -38 96 -100 257 -145 427 -120 124 19 256 51 285 69
38 24 46 90 24 202 -2 12 -7 37 -10 56 -9 52 -52 205 -71 251 -17 43 -46 61
-85 53 -13 -3 -84 -7 -158 -9 l-135 -3 -48 111 c-81 194 -79 187 -64 187 23 0
55 43 62 82 6 32 10 36 28 29 39 -14 77 12 77 53 0 15 -86 182 -105 204 -1 2
-19 -5 -39 -14 -19 -10 -37 -16 -39 -13 -2 2 -21 30 -42 62 -103 158 -276 282
-470 338 -63 18 -109 23 -215 25 -74 1 -153 -2 -175 -7z m894 -913 c23 -55 39
-101 37 -103 -8 -8 -126 115 -126 131 0 29 30 90 39 80 5 -5 27 -54 50 -108z
m21 -171 c25 -13 41 -25 35 -25 -5 -1 -21 -3 -35 -5 -104 -17 -98 -18 -109 22
-6 21 -11 53 -11 70 l0 33 38 -36 c20 -20 57 -46 82 -59z m438 -93 c8 -29 12
-55 9 -58 -3 -3 -23 -8 -45 -11 l-40 -5 -17 52 c-18 53 -15 64 20 73 46 12 58
4 73 -51z m-168 -28 l18 -51 -45 0 c-44 -1 -45 0 -64 44 -10 25 -19 46 -19 48
0 5 51 13 74 11 14 -1 24 -16 36 -52z m-164 -12 c7 -18 10 -32 6 -32 -18 1
-169 29 -184 35 -21 8 -24 22 -5 22 25 0 121 14 125 18 11 11 46 -15 58 -43z
m-126 -77 c19 -3 42 -8 50 -10 8 -2 27 -4 43 -4 15 -1 27 -5 27 -10 0 -8 -188
-37 -194 -30 -8 10 16 68 27 64 6 -2 28 -7 47 -10z m504 -43 c6 -11 14 -53 22
-117 3 -27 7 -54 8 -60 1 -11 -23 -9 -71 6 -23 7 -33 17 -34 32 -2 36 -6 60
-13 94 -7 30 -5 33 26 42 43 12 56 13 62 3z m-157 -62 c6 -22 7 -43 3 -45 -5
-3 -23 12 -41 32 l-32 37 24 7 c13 4 26 7 29 8 3 1 11 -17 17 -39z m-113 -38
c20 -26 56 -61 81 -77 24 -17 47 -35 49 -42 15 -37 -76 -59 -213 -51 -110 6
-219 60 -264 129 -15 22 -15 28 -4 37 15 13 31 15 222 38 28 4 52 8 54 10 15
14 44 -3 75 -44z"/>
</g>
</svg>
